HIERARCHY
ROOT Hips
{
	OFFSET 0.00000 0.00000 0.00000
	CHANNELS 6 Xposition Yposition Zposition Zrotation Yrotation Xrotation 
	JOINT LHipJoint
	{
		OFFSET 0 0 0
		CHANNELS 3 Zrotation Yrotation Xrotation
		JOINT LeftUpLeg
		{
			OFFSET 1.54859 -1.61379 0.86856
			CHANNELS 3 Zrotation Yrotation Xrotation
			JOINT LeftLeg
			{
				OFFSET 2.25087 -6.18423 0.00000
				CHANNELS 3 Zrotation Yrotation Xrotation
				JOINT LeftFoot
				{
					OFFSET 2.40328 -6.60297 0.00000
					CHANNELS 3 Zrotation Yrotation Xrotation
					JOINT LeftToeBase
					{
						OFFSET 0.17435 -0.47901 2.02453
						CHANNELS 3 Zrotation Yrotation Xrotation
						End Site
						{
							OFFSET 0.00000 -0.00000 1.04844
						}
					}
				}
			}
		}
	}
	JOINT RHipJoint
	{
		OFFSET 0 0 0
		CHANNELS 3 Zrotation Yrotation Xrotation
		JOINT RightUpLeg
		{
			OFFSET -1.54669 -1.61379 0.86856
			CHANNELS 3 Zrotation Yrotation Xrotation
			JOINT RightLeg
			{
				OFFSET -2.28132 -6.26789 0.00000
				CHANNELS 3 Zrotation Yrotation Xrotation
				JOINT RightFoot
				{
					OFFSET -2.51636 -6.91365 0.00000
					CHANNELS 3 Zrotation Yrotation Xrotation
					JOINT RightToeBase
					{
						OFFSET -0.15124 -0.41552 2.21090
						CHANNELS 3 Zrotation Yrotation Xrotation
						End Site
						{
							OFFSET -0.00000 -0.00000 1.13399
						}
					}
				}
			}
		}
	}
	JOINT LowerBack
	{
		OFFSET 0 0 0
		CHANNELS 3 Zrotation Yrotation Xrotation
		JOINT Spine
		{
			OFFSET -0.04287 2.26161 -0.25690
			CHANNELS 3 Zrotation Yrotation Xrotation
			JOINT Spine1
			{
				OFFSET 0.02248 2.28395 -0.10140
				CHANNELS 3 Zrotation Yrotation Xrotation
				JOINT Neck
				{
					OFFSET 0 0 0
					CHANNELS 3 Zrotation Yrotation Xrotation
					JOINT Neck1
					{
						OFFSET -0.11644 1.38496 0.11345
						CHANNELS 3 Zrotation Yrotation Xrotation
						JOINT Head
						{
							OFFSET 0.29383 1.36600 0.06642
							CHANNELS 3 Zrotation Yrotation Xrotation
							End Site
							{
								OFFSET 0.11075 1.41395 -0.00294
							}
						}
					}
				}
				JOINT LeftShoulder
				{
					OFFSET 0 0 0
					CHANNELS 3 Zrotation Yrotation Xrotation
					JOINT LeftArm
					{
						OFFSET 3.51628 0.59542 -0.30346
						CHANNELS 3 Zrotation Yrotation Xrotation
						JOINT LeftForeArm
						{
							OFFSET 4.76405 -0.00000 0.00000
							CHANNELS 3 Zrotation Yrotation Xrotation
							JOINT LeftHand
							{
								OFFSET 3.13759 -0.00000 -0.00000
								CHANNELS 3 Zrotation Yrotation Xrotation
								JOINT LeftFingerBase
								{
									OFFSET 0 0 0
									CHANNELS 3 Zrotation Yrotation Xrotation
									JOINT LeftHandIndex1
									{
										OFFSET 0.73226 -0.00000 -0.00000
										CHANNELS 3 Zrotation Yrotation Xrotation
										End Site
										{
											OFFSET 0.59037 -0.00000 -0.00000
										}
									}
								}
								JOINT LThumb
								{
									OFFSET 0 0 0
									CHANNELS 3 Zrotation Yrotation Xrotation
									End Site
									{
										OFFSET 0.59938 -0.00000 0.59938
									}
								}
							}
						}
					}
				}
				JOINT RightShoulder
				{
					OFFSET 0 0 0
					CHANNELS 3 Zrotation Yrotation Xrotation
					JOINT RightArm
					{
						OFFSET -3.30990 0.84213 -0.36430
						CHANNELS 3 Zrotation Yrotation Xrotation
						JOINT RightForeArm
						{
							OFFSET -5.10161 -0.00000 -0.00000
							CHANNELS 3 Zrotation Yrotation Xrotation
							JOINT RightHand
							{
								OFFSET -3.23267 -0.00000 -0.00000
								CHANNELS 3 Zrotation Yrotation Xrotation
								JOINT RightFingerBase
								{
									OFFSET 0 0 0
									CHANNELS 3 Zrotation Yrotation Xrotation
									JOINT RightHandIndex1
									{
										OFFSET -0.70200 -0.00000 -0.00000
										CHANNELS 3 Zrotation Yrotation Xrotation
										End Site
										{
											OFFSET -0.56597 -0.00000 -0.00000
										}
									}
								}
								JOINT RThumb
								{
									OFFSET 0 0 0
									CHANNELS 3 Zrotation Yrotation Xrotation
									End Site
									{
										OFFSET -0.57461 -0.00000 0.57461
									}
								}
							}
						}
					}
				}
			}
		}
	}
}
MOTION
Frames: 8
Frame Time: .0083333
-32.0848 12.5225 12.9726 0 0 0 0 0 0 -21 0 0 0 0 0 0 0 0 0 0 0 0 0 0 21 0 0 0 0 0 0 0 0 0 0 0 0 0 0 0 0 0 0 0 0 0 0 -16 0 0 21 0 0 11 0 0 0 -8 0 0 0 0 0 0 0 0 0 0 0 0 0 0 0 0 0 0 0 0 8 0 0 0 0 0 0 0 0 0 0 0 0 0 0 0 0 0
-32.0848 12.5225 12.9726 -2.5265 55.5641 -11.3686 0.0000 0.0000 0.0000 -0.8831 -2.3599 -56.8358 6.4289 14.8314 46.6796 1.1117 -3.6327 21.5339 2.6806 -10.1591 -29.4936 0.0000 0.0000 0.0000 -12.7948 11.6974 -2.4974 -12.3969 -18.5534 67.2415 -0.6325 25.5937 -21.9190 -5.4403 13.8631 -42.6917 10.3969 8.3249 35.6123 6.4280 15.2110 17.2516 -2.7149 8.6031 2.2124 -3.7924 -9.5777 -5.1335 14.6299 -10.6391 -18.3110 5.2000 -5.5745 -3.5236 0.0000 -0.0000 0.0000 -79.5212 35.1478 71.9268 27.4999 -38.6518 -9.8098 -0.0000 0.0000 -22.2531 3.2089 29.3533 1.5742 -7.1250 0.0000 -0.0000 -30.1004 56.7120 -9.2161 0.0000 -0.0000 0.0000 50.7684 50.2001 -52.2093 -9.0966 15.3143 -1.2255 0.0000 0.0000 56.9966 -9.0149 27.3974 -4.1755 7.1250 -0.0000 -0.0000 12.5767 -2.8583 12.2366
-31.4944 12.5350 12.8597 -2.2121 54.6533 -10.6517 0.0000 0.0000 0.0000 1.2283 -3.6319 -55.3814 5.8516 14.2829 44.3830 1.3663 -2.8744 23.2806 3.2804 -11.1358 -32.7391 0.0000 0.0000 0.0000 -13.6653 12.3257 -0.0914 -11.1143 -17.9906 63.1521 -0.8192 23.0940 -21.6458 -6.1359 14.5588 -45.5249 9.6010 8.5341 34.5966 6.5665 15.0742 17.1692 -2.0904 8.4517 2.2284 -4.8773 -9.5601 -4.4834 15.6839 -10.6018 -17.6715 5.6911 -5.5624 -3.2924 -0.0000 0.0000 0.0000 -83.0627 34.8478 69.6041 27.9877 -39.1049 -10.1159 -0.0000 0.0000 -22.1436 4.5151 29.7758 2.2457 -7.1250 0.0000 -0.0000 -29.1700 57.3479 -9.3556 -0.0000 0.0000 0.0000 51.4290 47.4933 -36.7615 -10.7038 17.8328 -1.6841 0.0000 0.0000 35.5791 -3.6092 26.0625 -1.5874 7.1250 -0.0000 -0.0000 15.7415 -4.6844 14.9925
-30.8952 12.5176 12.7460 -1.8317 53.6958 -10.0571 0.0000 0.0000 0.0000 3.1605 -4.7451 -53.7994 5.6854 14.1163 43.7055 1.5417 -1.1192 23.9000 3.4123 -11.3343 -33.4158 0.0000 0.0000 0.0000 -14.5615 13.1351 2.5490 -9.9145 -17.3615 59.2022 -0.6021 21.6113 -19.4912 -6.2351 14.6523 -45.9180 9.0400 8.6498 33.9302 6.4581 14.9392 16.9906 -1.8632 8.3241 2.1503 -4.9564 -9.6527 -4.0707 16.3856 -10.7246 -17.2262 5.9130 -5.6661 -3.1565 -0.0000 0.0000 0.0000 -85.9030 34.0781 68.0167 27.9513 -39.0713 -10.0929 -0.0000 0.0000 -22.3979 6.7868 29.9624 3.4015 -7.1250 0.0000 -0.0000 -27.0805 57.9944 -9.0443 -0.0000 0.0000 0.0000 51.2050 44.5815 -23.8975 -12.6099 20.7130 -2.3135 0.0000 0.0000 19.8047 2.2464 23.8737 0.9095 7.1250 -0.0000 -0.0000 19.2491 -7.1363 17.7691
-30.2847 12.4864 12.6310 -2.0981 52.4446 -9.8296 0.0000 0.0000 0.0000 5.5995 -6.2544 -51.8173 5.5916 14.0205 43.3196 1.7878 1.9384 24.7541 3.2033 -11.0171 -32.3377 0.0000 0.0000 0.0000 -15.0460 13.7799 4.6108 -8.8278 -16.6956 55.4927 -0.4539 19.2307 -17.1588 -6.5043 14.8998 -46.9735 8.9003 8.6853 33.1779 6.2468 14.8140 16.6641 -1.9299 8.2225 2.0780 -4.9448 -9.6689 -3.9698 16.9789 -10.7683 -16.5747 6.0637 -5.7077 -2.9303 -0.0000 0.0000 0.0000 -88.4859 32.8714 66.9427 27.0326 -38.2103 -9.5193 -0.0000 0.0000 -22.6692 9.4150 29.3715 4.6495 -7.1250 0.0000 -0.0000 -23.9865 58.0330 -7.9482 -0.0000 0.0000 0.0000 50.7102 41.3715 -12.1598 -14.6591 23.6690 -3.0878 0.0000 0.0000 12.5437 2.5138 22.7179 0.9713 7.1250 -0.0000 -0.0000 19.4709 -8.2395 17.5531
-29.6793 12.4572 12.5063 -2.7631 51.0481 -9.8311 0.0000 0.0000 0.0000 7.2754 -6.5053 -50.3993 5.8835 14.3145 44.5124 1.0479 -2.2382 20.2657 7.2735 -15.5580 -49.9014 0.0000 0.0000 0.0000 -15.4398 13.7670 5.9051 -7.9092 -16.0521 52.2349 -0.3626 15.8985 -14.6362 -6.8475 15.2022 -48.2953 8.9217 8.2824 31.5338 6.1574 14.0716 16.7155 -1.8417 7.8808 2.7634 -5.6360 -9.3984 -3.2890 17.8310 -10.3189 -16.7040 6.4888 -5.5194 -3.0225 -0.0000 0.0000 0.0000 -91.6162 31.3920 65.2624 26.3965 -37.5976 -9.1285 -0.0000 0.0000 -22.6884 11.2562 28.8756 5.4899 -7.1250 0.0000 -0.0000 -21.7529 57.9768 -7.1289 -0.0000 0.0000 0.0000 49.5072 39.1837 -1.8407 -16.8898 26.7123 -4.0377 0.0000 0.0000 10.0253 2.9458 23.1311 1.1581 7.1250 -0.0000 -0.0000 19.7016 -7.8659 17.9443
-29.0795 12.3760 12.3800 -3.0743 49.5122 -9.5444 0.0000 0.0000 0.0000 8.5461 -7.7866 -49.4645 6.7132 15.0856 47.7813 -0.1483 -9.6612 10.8279 7.1886 -15.4887 -49.5842 0.0000 0.0000 0.0000 -16.5100 13.0535 6.3448 -7.1997 -15.4977 49.6255 -0.2694 11.9543 -11.7278 -7.0277 15.3552 -48.9791 8.5699 7.9360 31.0273 5.8819 13.4380 16.1797 -1.8261 7.4808 2.2723 -5.7495 -9.1619 -3.1507 18.2119 -9.9764 -16.5768 6.6359 -5.3653 -3.0129 -0.0000 0.0000 0.0000 -94.1525 30.3985 64.2468 25.9239 -37.1335 -8.8417 -0.0000 0.0000 -22.2352 12.3435 28.6723 5.9938 -7.1250 0.0000 -0.0000 -20.4968 58.0232 -6.7165 -0.0000 0.0000 0.0000 48.0930 36.9517 7.1239 -19.3111 29.8035 -5.1846 0.0000 0.0000 9.2905 3.1089 24.0883 1.2699 7.1250 -0.0000 -0.0000 19.7422 -6.9691 18.3549
-28.4999 12.2797 12.2396 -3.4160 47.8241 -9.2420 0.0000 0.0000 0.0000 7.9508 -7.0393 -51.5319 8.1986 16.2634 53.2748 0.0940 -4.6720 9.3122 5.0064 -13.3910 -40.8502 0.0000 0.0000 0.0000 -17.6338 11.8629 5.8093 -6.7017 -15.0755 47.7369 -0.1739 7.5680 -8.5169 -7.0413 15.3665 -49.0302 8.3750 7.2679 30.2413 5.5472 12.4125 15.8398 -1.7790 6.9277 2.1636 -6.7008 -8.6848 -2.1996 19.2533 -9.1647 -17.2264 7.2212 -5.0206 -3.3340 -0.0000 -0.0000 0.0000 -96.8782 28.8577 63.3299 25.3682 -36.5780 -8.5084 -0.0000 0.0000 -21.2456 12.6329 28.7847 6.1597 -7.1250 0.0000 -0.0000 -20.2778 58.1911 -6.7234 -0.0000 -0.0000 0.0000 46.1997 36.1289 14.5348 -21.6404 32.5682 -6.3912 0.0000 0.0000 6.8304 3.6642 24.7256 1.5344 7.1250 -0.0000 -0.0000 20.0290 -6.3892 18.8988
